# xmcd
#
# Track frame offsets:
#	150
#	15709
#	41229
#	58446
#	80573
#	117599
#	131912
#	155608
#	175286
#	185254
#	205607
#
# Disc length: 2941 seconds
#
# Revision: 1
# Processed by: cddbd v1.5.2PL0 Copyright (c) Steve Scherf et al.
# Submitted via: audiograbber 1.83.01
#
DISCID=a10b7b0b
DTITLE=Joe Bonamassa - Sloe Gin
DYEAR=2007
DGENRE=Blues Rock
TTITLE0=Ball Peen Hammer
TTITLE1=One Of These Days
TTITLE2=Seagull
TTITLE3=Dirt In My Pocket
TTITLE4=Sloe Gin
TTITLE5=Another Kind Of Love
TTITLE6=Around The Bend
TTITLE7=Black Night
TTITLE8=Jelly Roll
TTITLE9=Richmond
TTITLE10=India
EXTD=
EXTT0=
EXTT1=
EXTT2=
EXTT3=
EXTT4=
EXTT5=
EXTT6=
EXTT7=
EXTT8=
EXTT9=
EXTT10=
PLAYORDER=
